<svg version="1.2" xmlns="http://www.w3.org/2000/svg" viewBox="0 0 666 194" width="666" height="194">
	<style>
		.s0 { opacity: .93;fill: #3c2706 } 
	</style>
	<path id="Path 0" fill-rule="evenodd" class="s0" d="m539.75 4.21c6.13-0.18 7.34 0.06 7.85 1.54 0.32 0.96 1.45 3.89 2.5 6.5 1.04 2.61 1.91 7.11 1.93 10 0.01 3.13 0.59 5.86 1.44 6.75 1.02 1.08 1.28 3.05 0.91 7-0.51 5.45-0.56 5.53-6.7 9.65-3.4 2.28-9.1 5.36-12.68 6.84-3.58 1.48-7.63 2.92-9 3.19-2.12 0.42-3.77-0.86-10.78-8.34-7.86-8.39-8.28-9.07-8.25-13.34 0.02-3.4 0.51-4.81 2.03-5.75 1.86-1.16 1.95-1.95 1.36-11-0.5-7.68-0.34-10 0.75-10.94 0.81-0.7 5.58-1.34 11.39-1.54 5.5-0.2 13.26-0.45 17.25-0.56zm-19.2 2.84c-0.52 0.52-1.31 0.95-1.75 0.95-0.44 0-0.57-0.45-0.3-1 0.27-0.55-0.51-0.99-1.75-0.98-1.24 0-2.86 0.34-3.6 0.75-1.04 0.56-1.1 1.24-0.25 2.98 0.61 1.24 0.87 2.7 0.6 3.25-0.27 0.55-0.27 2.57 0 4.5 0.27 1.93 0.93 3.27 1.45 3 0.52-0.28 0.75 0.4 0.5 1.5-0.37 1.64 0.07 2 2.38 2 1.56 0 3.18-0.34 3.59-0.75 0.42-0.41 2.18-0.78 3.92-0.82 1.74-0.04 4.06-0.42 5.16-0.84 1.65-0.64 1.73-0.57 0.5 0.38-1.2 0.92-0.79 1.06 2 0.68 1.92-0.27 6.65-0.97 10.5-1.55 3.85-0.59 7.19-1.3 7.42-1.58 0.23-0.29-0.11-0.52-0.75-0.52-0.65 0-0.92-0.56-0.62-1.25 0.3-0.69-0.38-3.84-1.5-7-1.93-5.42-2.21-5.72-4.8-5.17-1.51 0.32-3.31 0.77-4 1-0.69 0.23-1.02-0.03-0.75-0.58 0.28-0.56-0.7-0.92-2.25-0.81-1.51 0.1-5.45 0.35-8.75 0.55-3.3 0.21-6.43 0.8-6.95 1.31zm10.45 16.95c-5.23 0.56-10.85 1.27-12.5 1.57-2.77 0.51-3.02 0.91-3.31 5.24l-0.32 4.69c14.44-1.18 21.9-1.85 25.89-2.26 5.41-0.55 7.27-1.12 7.32-2.24q0.07-1.46 0.88 0.5c0.76 1.87 0.85 1.84 1.36-0.5 0.3-1.38 0.51-3.96 0.45-5.75-0.1-3.19-0.19-3.25-4.77-3.25-2.57 0-4.85 0.22-5.08 0.5-0.23 0.27-4.69 0.95-9.92 1.5zm-22.42 10.15c-0.45 1.29-0.54 2.91-0.2 3.6 0.34 0.69 1.17 0.91 1.86 0.5 0.74-0.45 0.96-0.35 0.54 0.25-0.38 0.55 1.87 3.88 5.01 7.39 4.29 4.81 6.08 6.17 7.19 5.5 1.15-0.69 1.32-0.51 0.75 0.86-0.41 0.99-0.29 1.75 0.27 1.75 0.55 0 1.11-2.02 1.25-4.5 0.14-2.48 0.25-5.02 0.25-5.67 0-0.64-0.56-1.31-1.25-1.5q-1.25-0.32-0.74 1.92c0.29 1.27 0.07 1.06-0.5-0.5-0.62-1.7-2.63-3.58-5.26-4.92-2.34-1.2-5.17-3.27-6.3-4.6l-2.05-2.43zm37.67 2.69c-0.41-0.08-1.43 0.11-2.25 0.43-0.83 0.32-3.3 1.12-5.5 1.79-2.2 0.67-5.69 2.05-7.75 3.08-3.18 1.58-3.75 2.36-3.76 5.11-0.01 1.79-0.14 4.37-0.28 5.73-0.25 2.35-0.15 2.4 1.76 0.93 1.12-0.85 4.91-2.64 8.42-3.98 4.15-1.57 7.05-3.39 8.25-5.18 1.02-1.51 2.42-2.68 3.11-2.59 0.69 0.09 2.04 0.09 3 0 1.38-0.13 1.75-1.1 1.75-4.66 0-2.47-0.45-4.5-1-4.5-0.55 0-1.9 0.9-3 2-1.1 1.1-2.34 1.93-2.75 1.84zm-21.5-0.35l-5.75 0.51c3.49 2.89 5.62 4.04 7 4.42 2.43 0.67 2.44 0.64 0.5-0.88-1.1-0.87-1.66-1.57-1.25-1.56 0.41 0.01 1.65 0.47 2.75 1.02 1.4 0.7 2.76 0.63 4.53-0.25 1.39-0.69 2.51-1.47 2.48-1.75-0.02-0.27 1.88-0.83 4.22-1.22 2.35-0.4 4.7-1.19 5.22-1.75 0.6-0.65 0.6-0.97 0-0.88-0.52 0.08-3.88 0.53-7.45 0.99-3.58 0.46-9.09 1.07-12.25 1.35zm-337.75 14.05c7.42 0.23 13.72 0.64 14 0.91 0.27 0.27-0.88 1.96-2.57 3.77-1.69 1.8-3.35 4.63-3.68 6.28-0.33 1.65-0.53 3.84-0.43 4.87 0.1 1.03 2.1 3.28 8.71 8.13l-0.58 6.5c-0.46 5.15-0.2 7.22 1.23 9.98 1 1.92 3.39 4.52 5.32 5.78 1.92 1.26 4.74 2.28 6.25 2.27 1.51-0.02 4.44-0.72 6.5-1.57 2.7-1.1 5.71-1.38 10.75-1 6.65 0.51 7.24 0.38 11.81-2.71 4.25-2.87 4.98-3.07 6.22-1.75 0.78 0.83 2.33 5.1 3.45 9.5 1.13 4.4 2.43 11.15 2.91 15 0.5 3.97 0.49 9.38 0 12.5-0.48 3.03-1.4 7.08-2.04 9-0.64 1.93-2.28 5.3-3.66 7.5-1.38 2.2-5.07 7.15-8.21 11-3.13 3.85-8.35 9.6-11.59 12.77-3.53 3.46-8.7 7.16-12.89 9.23-3.85 1.89-11.95 5.04-18 6.99-7.87 2.54-12.78 3.55-17.25 3.53-4.43-0.01-8.22-0.81-13-2.73-3.71-1.49-10.69-5.31-15.5-8.5-4.81-3.18-10.12-7.03-11.79-8.54-1.67-1.51-4.71-4.38-6.75-6.37-2.04-1.99-5.54-5.59-7.77-8-2.23-2.41-5.22-6.4-6.63-8.88-1.41-2.47-3.3-7.76-4.19-11.75-0.89-3.99-1.62-10.29-1.62-14-0.01-3.71 0.94-11.92 2.09-18.25 1.17-6.36 3.34-14.18 4.86-17.5 1.52-3.3 3.85-7.12 5.18-8.5 1.34-1.37 4.44-4.17 6.9-6.22 2.46-2.04 6.49-5.35 8.97-7.34 2.47-2 7.87-5.23 12-7.17 4.12-1.95 9.75-3.91 12.5-4.35 2.75-0.45 11.07-0.62 18.5-0.38zm-28.5 7.54c-2.75 1.37-7.7 4.47-11 6.9-3.3 2.42-8.25 6.69-11 9.47-2.75 2.79-6.56 7.31-8.46 10.06-1.91 2.74-4.28 7.92-5.29 11.49-1 3.58-2.07 10.1-2.37 14.5-0.3 4.4-0.14 9.8 0.37 12q0.92 4.01 2.34 3.63c0.77-0.21 3.29-0.43 5.58-0.5 2.85-0.09 5.08 0.55 7 1.99 1.56 1.16 3.1 3.18 3.42 4.5 0.33 1.31 0.16 3.28-0.37 4.38-0.54 1.1-1.93 3.03-3.1 4.28-1.17 1.25-3.58 2.49-5.37 2.75l-3.25 0.47c2.71 4.79 7.1 9.62 11.5 13.84 4.4 4.21 11.15 9.73 15 12.26 3.85 2.53 9.02 5.75 11.5 7.14 2.47 1.4 6.97 3.27 10 4.16 3.02 0.89 7.41 1.62 9.75 1.61 2.34 0 7.4-0.68 11.25-1.51 3.85-0.82 10.04-2.71 13.75-4.18 3.71-1.48 9.49-4.74 12.83-7.25 3.35-2.51 8.53-7.3 11.5-10.65 2.98-3.34 7.5-9.19 10.05-13 2.55-3.8 5.59-9.51 6.75-12.67 1.24-3.37 2.12-8.13 2.12-11.5 0-3.16-0.79-9.24-1.75-13.5-0.96-4.26-2.09-7.75-2.5-7.75-0.41 0-0.49 1.01-0.17 2.25 0.36 1.38 0.07 2.51-0.75 2.92-0.73 0.36-2.01 0.29-2.83-0.17-0.83-0.45-2.4-0.44-3.5 0.02-1.1 0.46-3.24 1.1-4.75 1.41-2.45 0.51-2.75 1.01-2.75 4.57 0 2.2-0.52 5.01-1.15 6.25-0.63 1.24-1.65 2.58-2.25 2.99-0.61 0.4-2.45 0.74-4.1 0.74-1.65 0.01-4.58-0.94-6.5-2.1-3.45-2.09-3.49-2.19-2.84-7.25l0.66-5.13c-11.69-0.96-14.07-1.7-16.37-3.55-1.68-1.35-4.16-3.78-5.5-5.41-2.19-2.65-2.45-3.91-2.45-11.71 0-7.77-0.22-8.84-2-9.65-1.67-0.76-2.25-0.39-3.51 2.2-0.93 1.93-2.36 3.22-3.75 3.37-1.32 0.15-4.08-1.18-6.74-3.25-3.19-2.47-5.53-3.5-8-3.5-3.22 0-3.5-0.24-3.5-3 0-2.09 1.05-4.05 3.5-6.5 2.97-2.97 4.07-3.45 7.25-3.16 2.06 0.19 4.54 0.64 5.5 1 1.3 0.49 1.75 0.15 1.75-1.34 0-1.1 1.12-3.35 2.5-5 1.37-1.65 3.4-3.22 4.5-3.5 1.1-0.27 2-0.95 2-1.5 0-0.6-3.72-0.98-9.25-0.94-5.9 0.03-11.24 0.68-14.75 1.8-3.03 0.96-7.75 2.86-10.5 4.22zm-93.25 3.04c4.24-0.08 10.74 0.85 17.5 2.5 5.91 1.44 13.22 3.8 21.75 7.88l0.3 5.5c0.16 3.03-0.15 9.78-0.7 15-0.55 5.23-1.36 9.87-1.8 10.33-0.44 0.45-1.81 0.57-3.05 0.25-1.24-0.32-2.87-1.82-3.64-3.33-0.76-1.51-3.35-4.71-5.75-7.1-2.4-2.4-6.39-5.29-8.86-6.43-2.96-1.36-7.41-2.24-13-2.56-7.69-0.45-9.05-0.24-14.25 2.17-3.72 1.73-7.07 4.28-9.5 7.24-2.06 2.51-4.88 7.13-6.25 10.25-2.29 5.21-2.5 6.9-2.5 20.18 0 13.3 0.19 14.87 2.36 19 1.3 2.48 3.55 5.78 5 7.34 1.45 1.57 4.66 3.89 7.14 5.17 2.87 1.48 7.21 2.57 12 3 4.12 0.37 10.2 0.24 13.5-0.29 3.3-0.53 7.8-1.79 10-2.79 2.2-1.01 5.48-2.98 7.29-4.38 1.81-1.4 4.85-4.91 6.75-7.8 1.93-2.93 4.23-5.27 5.21-5.29 0.96-0.03 2.26 0.53 2.89 1.25 0.7 0.78 1.39 7.48 2.36 32.79l-3.25 1.95c-1.79 1.07-9.33 3.14-16.75 4.6-11.6 2.27-15.33 2.58-26.5 2.2-10.12-0.34-14.55-0.96-20-2.78-3.85-1.29-8.8-3.35-11-4.58-2.2-1.23-6.25-4.42-9-7.09-2.75-2.67-6.28-7.09-7.84-9.82-1.56-2.74-3.7-8.35-4.76-12.48-1.32-5.14-1.92-10.88-1.91-18.25 0-5.91 0.68-13.9 1.51-17.75 0.82-3.85 2.4-8.8 3.5-11 1.1-2.2 2-4.45 2-5 0-0.55 1.24-2.71 2.75-4.81 1.51-2.09 3.87-5.13 5.25-6.75 1.37-1.61 4.52-4.52 7-6.45 2.47-1.93 5.85-4.23 7.5-5.12 1.65-0.88 5.92-2.54 9.5-3.67 3.57-1.14 7.4-2.27 8.5-2.52 1.1-0.25 5.04-0.5 8.75-0.56zm430.75 3.69c1.99 0.23 4.26 1.33 5.25 2.55q1.76 2.14 2.32 9.64c0.31 4.13 0.73 9.08 0.94 11 0.22 1.93 0.68 6.88 1.03 11 0.35 4.13 0.74 20.33 0.87 36 0.24 27.45 0.16 28.74-2.04 35-1.26 3.58-3.43 7.51-4.83 8.75-1.4 1.24-4.23 2.68-6.29 3.2-2.99 0.75-4.77 0.54-8.75-1.04-2.95-1.17-6.87-3.92-9.54-6.7-2.5-2.59-5.3-5.83-6.22-7.21-0.92-1.37-3.1-4.52-4.83-7-1.74-2.47-4.02-6.07-5.06-8-1.05-1.92-2.85-5.07-4-7-1.16-1.92-2.85-4.85-3.76-6.5-0.91-1.65-2.88-4.91-4.37-7.25-1.5-2.34-4.3-5.82-6.22-7.75-1.93-1.92-4.29-3.52-5.25-3.54-0.96-0.03-2.28 0.53-2.93 1.25-0.65 0.71-1.65 3.32-2.22 5.79-0.76 3.32-0.58 10.74 0.68 28.21 1.41 19.47 1.49 23.95 0.42 25-0.9 0.89-4.6 1.29-12 1.28-6.58-0.01-11.57-0.5-12.95-1.25-2.25-1.24-2.25-1.28-2.25-27.99 0-14.71 0.71-39.12 1.58-54.25 0.87-15.12 2.06-28.4 2.65-29.5 0.59-1.1 1.56-2.33 2.17-2.73 0.6-0.41 5.04-0.74 9.85-0.75 6.67-0.02 9.64 0.44 12.5 1.9 2.06 1.05 4.38 2.96 5.16 4.25 0.78 1.28 2.16 3.68 3.09 5.33 0.92 1.65 2.8 5.03 4.19 7.5 1.39 2.48 4.95 8.49 7.91 13.37 2.97 4.88 5.85 9.6 6.4 10.5 0.55 0.9 2.85 4.33 5.1 7.63 2.26 3.3 5.63 7.63 7.5 9.61 1.87 1.99 4.41 3.9 5.65 4.25 1.75 0.5 2.62 0.03 3.94-2.11 1.47-2.4 1.6-4.67 1.03-17.75-0.37-8.25-1.34-17.92-2.16-21.5-0.83-3.57-1.81-9.65-2.19-13.5-0.54-5.47-0.38-7.22 0.72-7.99 0.78-0.55 4.11-1.25 7.41-1.55 3.3-0.3 7.57-0.37 9.5-0.15zm35.5-0.16c2.75 0.3 5.58 0.84 6.29 1.2 0.71 0.36 1.52 1.33 1.82 2.15 0.29 0.83 0.94 11.4 1.45 23.5 0.51 12.1 1.23 36.4 1.6 54 0.6 29.03 0.51 32.16-1 33.75-0.96 1.01-3.88 2.01-6.91 2.36-2.89 0.34-7.95 0.34-11.25 0.01-3.68-0.37-6.58-1.24-7.5-2.26-1.31-1.44-1.4-6.57-0.74-39.76 0.41-20.95 1-45.3 1.3-54.1 0.37-10.58 0.99-16.62 1.83-17.83 0.71-1.01 2.82-2.23 4.7-2.7 1.87-0.47 5.66-0.62 8.41-0.32zm77 0.08c15.95 0.12 30.01 0.46 31.25 0.75 1.61 0.37 2.39 1.44 2.75 3.77 0.27 1.79 0.61 9.27 0.75 16.63 0.22 11.92 0.05 13.5-1.54 14.5-1.51 0.95-2.31 0.5-5.11-2.88-1.83-2.2-5.07-5.23-7.21-6.73-2.5-1.75-7.1-3.42-12.89-4.68-6.02-1.3-11.49-1.82-16.5-1.56-4.13 0.21-9.75 0.94-12.5 1.62-2.75 0.68-6.46 2.5-8.25 4.04-2.77 2.4-3.25 3.48-3.25 7.31 0 2.48 0.39 5.29 0.87 6.25 0.47 0.96 3.29 2.83 6.25 4.14 5.22 2.32 5.91 2.37 23.88 1.81 13.61-0.42 18.83-0.26 19.77 0.61 0.84 0.8 1.26 4.25 1.25 10.44-0.02 7.91-0.28 9.34-1.77 9.85-0.96 0.34-3.1-0.09-4.75-0.94-1.65-0.85-5.03-2.25-7.5-3.12-3.13-1.1-8-1.57-16-1.54-10.39 0.04-11.91 0.29-15.75 2.52-2.34 1.37-4.7 3.38-5.25 4.48-0.55 1.1-1 5.38-1 9.5 0 7.06 0.19 7.71 3.25 11.1 1.79 1.98 5.27 4.47 7.75 5.53 2.47 1.06 7.2 2.4 10.5 2.98 3.3 0.58 9.15 0.77 13 0.43 3.85-0.35 10.34-1.85 14.43-3.34 6.24-2.27 8.09-3.5 11.56-7.7 2.26-2.75 4.88-6.24 5.81-7.75 0.94-1.51 2.37-2.75 3.2-2.75 0.82 0 2.18 1.01 3.02 2.25 1.21 1.78 1.58 6.05 1.98 38.25l-10 0.79c-5.5 0.44-26.88 0.61-47.5 0.38-20.63-0.23-38.29-0.7-39.25-1.05-0.96-0.34-1.99-1.41-2.27-2.37-0.29-0.96-0.05-20.65 0.52-43.75 0.57-23.1 1.49-47.62 2.04-54.5 0.55-6.87 1.46-12.95 2.03-13.5 0.56-0.55 6.06-1.22 12.22-1.5 6.17-0.27 24.26-0.4 40.21-0.27zm-335.89 0.27c8.07 0 11.75 0.38 12.64 1.31 0.69 0.72 1.6 5.1 2.02 9.75 0.42 4.64 1.68 14.29 2.79 21.44 1.11 7.15 2.67 16.83 3.47 21.5 0.8 4.68 1.91 10.19 2.46 12.25 0.6 2.22 1.62 3.75 2.51 3.75 0.82 0 1.95-0.9 2.5-2 0.55-1.1 2.14-6.84 3.54-12.75 1.39-5.91 3.14-12.55 3.89-14.75 0.74-2.2 2.85-8.72 4.68-14.5 1.83-5.77 4.24-12.02 5.36-13.89 1.12-1.87 3.27-4 4.78-4.75 1.51-0.75 3.76-1.37 5-1.39 1.24-0.01 3.76 1 5.6 2.25 2.54 1.73 4.07 4.11 6.27 9.78 1.59 4.13 3.12 8.74 3.39 10.25 0.27 1.51 1.1 4.21 1.85 6 0.75 1.79 3.03 10 5.08 18.25 2.04 8.25 4.24 15.58 4.89 16.3 0.64 0.71 1.62 1.28 2.17 1.27 0.55 0 1.59-1.26 2.32-2.79 0.73-1.53 1.77-6.38 2.31-10.78 0.54-4.4 1.41-9.91 1.93-12.25 0.51-2.34 1.58-9.31 2.37-15.5 0.78-6.19 1.77-14.62 2.19-18.75 0.43-4.2 1.37-8.05 2.14-8.75 0.94-0.85 5.07-1.25 12.81-1.25 10.43 0 11.52 0.18 12.43 2 0.69 1.38 0.52 5.8-0.54 14.25-0.85 6.74-2.45 17.65-3.56 24.25-1.11 6.6-2.94 16.73-4.07 22.5-1.13 5.78-3.62 17.25-5.53 25.5-1.92 8.25-4.23 17.41-5.14 20.35-0.94 3.04-2.53 5.85-3.66 6.49-1.21 0.69-6.53 1.09-13.5 1.01-6.33-0.07-12.74-0.62-14.25-1.24-2.39-0.96-2.89-1.94-3.82-7.36-0.58-3.44-1.91-10.97-2.95-16.75-1.03-5.77-3.03-15.45-4.44-21.5-1.41-6.05-3.23-12.01-4.05-13.25-0.82-1.24-2.28-2.13-3.24-1.98-1.29 0.19-2.46 2.76-4.45 9.75-1.48 5.21-3.62 14.66-4.75 20.98-1.13 6.33-2.3 13.3-2.62 15.5-0.31 2.2-0.97 5.58-1.46 7.5-0.5 1.93-1.48 4.3-2.19 5.27-0.81 1.11-3.67 2.16-7.78 2.84-3.58 0.59-9.65 0.79-13.5 0.43-3.85-0.35-7.62-1.18-8.38-1.84-0.76-0.66-1.81-2.32-2.33-3.7-0.52-1.37-2.21-7.45-3.76-13.5-1.55-6.05-3.96-16.62-5.36-23.5-1.39-6.87-3.46-17.22-4.59-23-1.14-5.77-2.24-12.52-2.45-15-0.21-2.47-1.45-10.86-2.76-18.64-2.01-12.01-2.17-14.38-1.01-15.75 1.11-1.3 3.52-1.61 12.75-1.61zm-121.94 0.49c0.18 0.28-1.58 2.19-3.92 4.25-2.34 2.05-5.99 5.54-8.11 7.75-2.12 2.2-5.11 6.71-6.64 10.01-1.53 3.3-3.4 8.82-4.14 12.26-0.75 3.44-1.81 6.26-2.36 6.27-0.64 0-0.72-1.73-0.22-4.76 0.43-2.62 1.55-7.11 2.5-9.97 0.94-2.86 3.52-7.72 5.72-10.79 2.2-3.07 6.89-7.83 10.42-10.56 3.53-2.74 6.57-4.75 6.75-4.46zm0.94 4.51c1.31 0 2.39 0.23 2.39 0.5 0 0.28-1.46 2.06-3.25 3.96-1.79 1.9-3.59 3.25-4 3-0.41-0.25-0.46-1.47-0.11-2.71 0.36-1.24 1.08-2.81 1.62-3.5 0.53-0.69 2.04-1.25 3.35-1.25zm1.39 27c0.55 0 2.14 1.01 3.53 2.25 1.4 1.24 2.81 3.83 3.13 5.75 0.51 2.99 0.14 3.98-2.53 6.75-2.17 2.25-4.06 3.25-6.13 3.25-1.65 0-4.16-0.56-5.57-1.25-1.41-0.69-2.79-2.15-3.07-3.25-0.28-1.1-0.34-3.1-0.13-4.44 0.22-1.41 1.59-3.1 3.24-4 1.57-0.86 3.69-2.35 4.69-3.31 1.01-0.96 2.29-1.75 2.84-1.75zm34.72 9c1.25 0 2.47 0.41 2.7 0.91 0.23 0.5 0.12 1.67-0.25 2.6-0.53 1.34-1.4 1.55-4.17 1-1.93-0.38-3.73-0.91-4-1.18-0.28-0.27 0.39-1.13 1.47-1.91 1.09-0.78 3-1.42 4.25-1.42zm0.28 20.43c2.47 0.35 6.75 0.98 9.5 1.39 2.75 0.42 5.56 1.08 6.25 1.47 0.69 0.39 1.25 1.5 1.24 2.46 0 0.96-1.01 2.97-2.25 4.47-1.23 1.49-4.83 4.08-7.99 5.75-3.16 1.67-6.54 3.04-7.5 3.05-0.96 0.01-3.1-1.37-4.75-3.06-2.42-2.49-3-3.95-3-7.53 0-3.06 0.62-5.08 2-6.54 1.68-1.77 2.72-2 6.5-1.46zm51.11 6.57c0.49 0 0.89 1.35 0.89 3 0 2.13-0.72 3.43-2.5 4.5-1.38 0.83-2.95 1.28-3.5 1-0.57-0.28 0.13-2.24 1.61-4.5 1.44-2.2 3.01-4 3.5-4zm-91.24 6.2c0.34 0.2 1.75 0.88 3.13 1.5 1.37 0.63 3.29 1.4 4.25 1.72 1.44 0.48 1.53 0.85 0.5 2.13-0.69 0.85-2.15 1.51-3.25 1.47-1.1-0.04-2.8-0.85-3.78-1.79-0.98-0.95-1.72-2.55-1.64-3.56 0.08-1.01 0.44-1.67 0.79-1.47zm78.13 8.37c2.47 0.19 4.81 0.7 5.19 1.14 0.38 0.43 0.92 1.92 1.2 3.29 0.36 1.76-0.4 3.74-2.56 6.7-1.69 2.31-4.48 5.11-6.2 6.22-1.72 1.11-4.14 2.03-5.38 2.05-1.24 0.02-3.15-0.42-4.25-0.97-1.67-0.83-2-2-2-7 0-3.3 0.45-7.12 1-8.5 0.77-1.92 1.87-2.59 4.75-2.88 2.06-0.21 5.77-0.23 8.25-0.05zm-54.46 3.43c0.8 0 3.03 0.68 4.96 1.5 2.43 1.04 3.68 2.34 4.11 4.25 0.33 1.51 0.33 3.76 0 5-0.37 1.36-2.1 2.88-4.36 3.83-2.35 0.99-5.81 1.45-9.25 1.25-4.31-0.26-5.41-0.65-5.09-1.83 0.22-0.82 0.67-3.02 1-4.89 0.36-2.1 1.84-4.48 3.88-6.25 1.8-1.57 3.94-2.86 4.75-2.86zm29.21 14.04c0.69-0.02 1.25 0.64 1.25 1.46 0 0.83-1.58 2.4-3.5 3.5-1.93 1.1-3.49 2.56-3.48 3.25q0.02 1.27-1.08 0.25c-0.6-0.55-0.84-2.01-0.52-3.25 0.32-1.24 1.82-2.91 3.33-3.71 1.51-0.8 3.31-1.48 4-1.5zm17.25 5.05c1.11-0.02 0.99 0.38-0.5 1.56-1.1 0.86-4.48 2.69-7.5 4.04-3.15 1.42-9.14 2.91-14 3.5-4.68 0.57-10.98 0.8-14 0.51-3.03-0.29-7.75-1.53-10.51-2.76-2.75-1.22-5-2.38-5-2.57 0.01-0.19 2.26 0.32 5.01 1.13 2.75 0.81 8.15 1.48 12 1.47 3.85 0 10.6-0.61 15-1.36 4.4-0.74 10.25-2.28 13-3.42 2.75-1.14 5.67-2.09 6.5-2.1z"/>
</svg>