<svg version="1.2" xmlns="http://www.w3.org/2000/svg" viewBox="0 0 887 281" width="887" height="281">
	<style>
		.s0 { opacity: .93;fill: #fcf7e6 } 
	</style>
	<path id="Path 0" fill-rule="evenodd" class="s0" d="m733.42 9.01c4.44 0.01 8.98 0.24 10.08 0.51 1.45 0.36 3.21 3.45 6.38 11.24 3.65 8.93 4.47 12.17 4.88 19.24 0.37 6.47 0.93 8.98 2.37 10.5 1.63 1.73 1.84 3.38 1.37 22.73l-4 1.54c-2.2 0.85-6.7 3.43-10 5.73-3.3 2.31-11.17 6.35-17.5 8.99-6.81 2.85-13.54 4.96-21.5 5.59l-13.26-13.79c-13.03-13.56-13.25-13.86-13.22-18.29 0.01-2.48 0.45-6.3 0.96-8.5 0.51-2.2 1.29-4.12 1.73-4.27 0.43-0.14 1.32-0.59 1.97-1 0.89-0.55 0.95-4.12 0.25-14.48-0.51-7.56-0.57-15.21-0.12-17 0.54-2.19 1.77-3.7 3.75-4.62 1.84-0.86 9.29-1.68 19.87-2.19 9.31-0.46 17.14-1.08 17.41-1.38 0.27-0.31 4.13-0.55 8.58-0.55zm-23.17 4.93c-5.42 0.05-8.07 0.56-10.5 2.06-1.79 1.09-3.52 1.99-3.85 2-0.33 0 0.12-0.92 1-2.04 1.58-2.02 1.53-2.04-3.4-1.36-2.75 0.37-5.22 0.85-5.5 1.06-0.27 0.2 0.63 2.64 2 5.42 1.87 3.78 2.19 5.22 1.26 5.73-0.89 0.49-1.03 2.05-0.5 5.46 0.41 2.62 1.08 4.75 1.49 4.75 0.41-0.01 0.91-0.58 1.11-1.27 0.2-0.69 0.77-0.92 1.25-0.51 0.5 0.42 0.24 2.06-0.61 3.76-0.83 1.66-1.27 3.23-1 3.5 0.28 0.27 3.06 0.16 6.19-0.25 4.73-0.62 5.49-0.98 4.5-2.15-0.99-1.17-0.78-1.26 1.31-0.53 1.38 0.47 3.63 0.76 5 0.64 1.38-0.13 6.78-0.36 12-0.53 7.05-0.22 10.66-0.84 14-2.39 2.48-1.15 6.41-2.58 8.75-3.19 2.34-0.6 4.51-1.66 4.84-2.35 0.32-0.69-0.13-3.61-1-6.5-1.46-4.81-1.84-5.25-4.59-5.25-1.65 0-3.22-0.45-3.5-1-0.27-0.55 0.4-1 1.5-1 1.1 0 2.23-0.45 2.5-1 0.28-0.55 0.05-1.9-0.5-3-0.64-1.28-2-2-3.75-1.99-1.51 0-4.1 0.9-5.75 1.99-1.84 1.22-4.55 1.95-7 1.89l-4-0.09c6.98-2.22 9.19-3.08 9.42-3.34 0.23-0.25-1.35-0.41-3.5-0.35-2.16 0.07-5.72 0.49-7.92 0.95-2.2 0.45-7.26 0.85-11.25 0.88zm-22.3 32.06c0.78 4.39 0.8 4.34 0.81-2 0-3.58-0.34-7.85-0.76-9.5-0.66-2.58-0.77-2.3-0.81 2-0.02 2.75 0.32 7.02 0.76 9.5zm41.55-3.3c-1.1 0.57-7.62 1.31-14.5 1.66-6.87 0.34-14.64 0.97-17.27 1.38-2.62 0.42-4.75 0.98-4.73 1.26 0.01 0.27 1.59 1.51 3.51 2.75 1.92 1.24 3.49 2.7 3.49 3.25 0 0.55-1.58 0.1-3.5-1l-3.5-2c0 5.42-0.22 7.67-0.5 8.5-0.32 0.95 0.33 1.73 1.75 2.13 1.24 0.34 8.21 0.34 15.5 0 7.75-0.37 13.25-1.05 13.25-1.63 0-0.55-1.35-1-3-1-1.65 0-3.34-0.53-3.75-1.19-0.57-0.89 0.58-0.97 4.75-0.32 3.03 0.47 10.75 0.89 17.17 0.93 6.42 0.04 11.92-0.15 12.23-0.42 0.31-0.28 0.91-2.87 1.33-5.76 0.58-3.96 0.46-5.26-0.48-5.25-0.69 0-2.15 0.46-3.25 1.01q-2 1-2 0c0-0.55 1.35-1.79 2.99-2.75 1.65-0.96 3-2.54 3-3.5 0.01-0.96-0.1-1.69-0.24-1.61-0.14 0.08-4.75 0.68-10.25 1.34-5.5 0.66-10.9 1.66-12 2.22zm-45.79 25.3c1.66 1.39 1.68 1.37 0.29-0.27-0.83-0.98-1.15-2.1-0.73-2.5 0.42-0.4 1.32-0.14 2 0.58 0.67 0.72 1.23 2.16 1.23 3.2 0 1.04 2.25 4.07 5 6.74 2.75 2.67 6.71 6.85 8.79 9.3 3.03 3.55 3.97 4.15 4.64 2.95 0.47-0.83 1.35-1.16 1.96-0.75 0.61 0.41 1.12 1.54 1.13 2.5 0.01 1.5 0.15 1.53 0.98 0.25 0.53-0.83 0.98-4.76 0.98-8.75l0.02-7.25c-13.56-6.76-19.64-10.59-22.25-12.86-2.61-2.28-4.97-4.14-5.25-4.14-0.27 0-0.52 2.14-0.54 4.75-0.04 3.38 0.47 5.18 1.75 6.25zm63.04-5.44c-1.51 1.34-3.09 2.24-3.5 1.99-0.41-0.24-5.92 1.36-12.25 3.57-6.33 2.21-12.3 4.78-13.28 5.7-0.98 0.92-1.77 2.47-1.75 3.43 0.02 0.96-0.3 2.54-0.71 3.5-0.56 1.35-0.88 0.94-1.36-1.75-0.53-2.89-0.66-2.45-0.78 2.5-0.08 3.3-0.48 7.09-0.88 8.42-0.68 2.23-0.54 2.36 1.76 1.63 1.38-0.44 2.73-0.97 3-1.19 0.28-0.21-0.4-1.02-1.5-1.79-1.1-0.77-1.66-1.67-1.25-1.99 0.41-0.32 1.76 0.11 3 0.95 2.09 1.43 2.94 1.26 12.25-2.52 5.5-2.24 10.78-4.84 11.73-5.79 0.95-0.95 1.53-1.95 1.28-2.22-0.25-0.28 0.54-1.48 1.77-2.68 1.22-1.2 3.46-2.67 4.97-3.25 1.51-0.59 3.2-1.07 3.75-1.07 0.55 0 0.66 0.54 0.25 1.2q-0.74 1.19 0.75 0.67c0.83-0.29 1.61-1.5 1.75-2.7q0.24-2.15-1-1.61c-0.69 0.3-1.81-0.15-2.5-1-1.02-1.27-0.96-1.7 0.34-2.31 0.99-0.47 1.92-0.19 2.48 0.75 0.63 1.05 0.9 0.21 0.91-2.75 0.01-2.34-0.32-4.22-0.73-4.19-0.41 0.04-1.87 0.51-3.25 1.06-1.37 0.55-3.74 2.09-5.25 3.44zm-38.25 0.97l-12 0.62c9.69 5.31 13.96 7.08 15.75 7.36l3.25 0.51c-5.42-2.52-8.12-3.7-9.5-4.25-1.37-0.56-2.05-1.2-1.5-1.43 0.55-0.23 3.03 0.34 5.5 1.26 2.48 0.93 5.85 1.69 7.5 1.69 1.65 0 4.8-0.76 7-1.68l4-1.67c-5.8 0.43-7.49 0.27-7.49-0.08 0-0.36 0.67-0.92 1.49-1.25 0.83-0.34 2.96-0.65 4.75-0.71 1.79-0.05 5.5-0.67 8.25-1.38l5-1.28c-6.2 0.01-10.7 0.39-14 0.85-3.3 0.45-11.4 1.11-18 1.44zm-461.25 19.6c0.96-0.07 1.75 0.32 1.75 0.87 0 0.55-1.34 3.36-2.98 6.25-1.72 3.03-2.99 6.73-2.99 8.75-0.01 1.92 0.89 4.85 2 6.5 1.27 1.9 3.93 3.74 12.47 7.01l1.08 6.49c0.59 3.58 1.59 8.07 2.23 10 0.63 1.93 2.62 4.91 4.42 6.63 1.8 1.72 4.28 3.63 5.52 4.25 1.24 0.62 5.18 1.12 8.75 1.12 6.19 0 6.7-0.19 10.75-3.96 4.11-3.84 4.48-3.97 11.25-3.98 6.04-0.02 7.61-0.42 11.5-2.96 2.48-1.61 5.96-4.55 7.75-6.52 2.7-2.98 3.59-3.41 5.25-2.58 1.17 0.59 4.88 6.91 8.94 15.25 3.82 7.84 7.87 17.62 9 21.75 1.31 4.83 2.04 10.53 2.04 16-0.01 6.26-0.67 10.61-2.52 16.5-1.37 4.4-5.47 13.62-9.1 20.5-3.63 6.87-8.08 14.75-9.89 17.5-1.82 2.75-5.26 7.02-7.65 9.5-2.39 2.47-7.04 6.56-10.33 9.07-3.3 2.51-9.81 6.87-14.49 9.68-4.67 2.82-11.42 6.44-15 8.06-3.57 1.62-8.86 3.45-11.75 4.07-2.89 0.62-7.61 1.12-10.5 1.12-2.89 0-9.52-1.16-14.75-2.57-5.22-1.4-13.1-4.07-17.5-5.92-4.4-1.84-12.05-5.46-17-8.04-4.95-2.57-12.82-7.21-17.5-10.31-4.67-3.1-10.97-8.15-14-11.22-3.02-3.07-6.93-8.25-8.67-11.51-1.74-3.26-4.1-8.63-5.25-11.93-1.14-3.3-2.75-9.38-3.58-13.5-0.82-4.13-1.79-13.57-2.14-21-0.44-9.04-0.24-15.82 0.58-20.5 0.68-3.85 2.08-9.25 3.11-12 1.04-2.75 4.67-8.82 8.07-13.5 3.4-4.68 9.61-12.04 13.78-16.37 4.18-4.33 10.75-10.08 14.6-12.79 3.85-2.71 10.38-6.21 14.5-7.78 4.13-1.57 10.88-3.6 15-4.51 4.13-0.91 10.65-2.02 14.5-2.47 3.85-0.45 7.79-0.88 8.75-0.95zm-32.25 9.95c-4.12 1.75-10.2 5.01-13.5 7.24-3.3 2.23-8.41 6.33-11.35 9.12-2.95 2.78-8.38 9.11-12.07 14.06-3.69 4.95-8.05 11.25-9.68 14-1.62 2.75-3.56 6.35-4.3 8-0.73 1.65-2.18 5.93-3.22 9.5-1.07 3.7-1.88 9.62-1.88 13.75 0 3.99 0.86 11.64 1.9 17 1.05 5.36 2.62 11.66 3.5 14 0.88 2.34 2.16 4.26 2.85 4.27 0.69 0.02 2.94-0.66 5-1.5 2.06-0.83 5.89-1.53 8.5-1.53 3.73-0.01 5.46 0.58 8.07 2.75 2.44 2.03 3.45 3.81 3.83 6.76 0.41 3.12 0 4.77-1.85 7.5-1.3 1.93-4.49 4.62-7.1 6l-4.73 2.5c3.51 3.23 7.23 6.21 10.53 8.71 3.3 2.49 10.05 6.56 15 9.05 4.95 2.48 13.28 6.18 18.5 8.23 5.23 2.04 12.88 4.59 17 5.66 4.13 1.06 10.2 2.21 13.5 2.54 4.15 0.41 8.32 0.05 13.5-1.19 4.13-0.98 10.43-3.17 14-4.86 3.58-1.69 9.88-5.3 14-8.02 4.13-2.72 9.08-6.31 11-7.97 1.93-1.67 5.34-5.31 7.59-8.09 2.25-2.78 6.38-8.88 9.17-13.56 2.79-4.68 6.69-11.99 8.66-16.25 1.97-4.26 4.48-11.24 5.59-15.5 1.13-4.38 2.01-11.01 2.02-15.25 0-4.63-0.72-9.8-1.89-13.5-1.05-3.3-3.28-8.7-4.96-12-1.67-3.3-3.6-7.35-4.27-9-0.91-2.22-1.31-2.55-1.57-1.25-0.19 0.96 0.11 2.31 0.66 3 0.56 0.69 0.78 2.04 0.5 3-0.36 1.25-1.42 1.7-3.75 1.58-2-0.1-4.65 0.77-6.88 2.25-1.99 1.33-4.37 2.87-5.28 3.42-1.39 0.84-1.51 1.78-0.74 6 0.5 2.76 0.54 6.57 0.08 8.5-0.46 1.93-1.87 4.34-3.13 5.36-1.79 1.44-3.53 1.77-7.8 1.46-3.36-0.24-6.55-1.15-8.21-2.35-1.49-1.09-3.13-3.1-3.65-4.47-0.52-1.38-0.68-4.53-0.35-7 0.54-4.17 0.44-4.44-1.35-3.69-1.07 0.44-3.74 1.27-5.94 1.85-2.2 0.57-6.47 0.77-9.5 0.43-3.42-0.38-7.2-1.66-10-3.39-2.47-1.53-5.67-4.34-7.1-6.24-1.43-1.9-3.34-5.37-4.25-7.71-0.91-2.34-1.65-6.73-1.65-9.75 0-4.93-0.23-5.54-2.25-5.87-1.24-0.21-3.04-0.66-4-1-1.5-0.54-1.71-0.07-1.5 3.27 0.18 2.77-0.33 4.52-1.75 6.03-1.1 1.17-2.79 2.12-3.75 2.1-0.96-0.02-4.56-1.44-8-3.16-5.24-2.62-7.14-3.06-11.75-2.75-5.23 0.36-5.52 0.26-5.82-2.12-0.18-1.38 0.16-4.41 0.75-6.75 0.59-2.34 2.42-5.6 4.07-7.25 1.8-1.8 4.5-3.24 6.75-3.61 2.06-0.33 4.76-0.11 6 0.5 1.24 0.61 2.48 1.11 2.75 1.11 0.28 0 0.5-1.8 0.5-4 0-2.2 0.5-5.01 1.12-6.25 0.62-1.24 2.48-3.71 4.15-5.5l3.02-3.25c-4.49 0.18-8.04 0.61-10.79 1.06-2.75 0.46-8.37 2.27-12.5 4.02zm-136 17.02c7.51-0.06 14.97 0.56 21.5 1.8 5.5 1.04 13.6 3.13 18 4.64 4.4 1.51 9.07 3.47 10.38 4.35 1.31 0.89 2.77 2.4 3.25 3.36 0.5 1.01 0.39 9.22-0.28 19.5-0.72 11.24-1.64 18.58-2.5 20-0.92 1.53-2.31 2.25-4.35 2.25-2.55 0-3.56-0.86-6.74-5.75-2.06-3.16-5.78-7.7-8.25-10.09-2.48-2.39-6.76-5.44-9.51-6.78-2.76-1.35-8.59-2.93-13-3.53-5.43-0.74-9.93-0.77-14-0.1-3.3 0.54-7.8 1.81-10 2.82-2.2 1.02-6.26 4.12-9.02 6.89-2.77 2.77-6.48 7.97-8.26 11.54-1.78 3.57-3.95 9.87-4.82 14-1.15 5.43-1.48 11.09-1.18 20.5 0.4 12.75 0.49 13.16 4.34 21 3.03 6.14 5.16 8.99 9.19 12.25 3.46 2.8 7.55 4.94 12 6.27 4.68 1.4 9.51 2.01 15.75 1.98 4.95-0.02 11.7-0.74 15-1.6 3.3-0.86 8.48-2.87 11.5-4.47 3.03-1.6 7.4-4.82 9.73-7.17 2.33-2.34 5.7-6.51 7.51-9.26 2.7-4.12 3.84-5.04 6.52-5.25 2.45-0.19 3.58 0.3 4.62 2 0.99 1.61 1.56 7.86 2 22 0.39 12.45 0.25 20.49-0.38 21.75-0.55 1.1-2.91 2.83-5.25 3.84-2.34 1.02-7.4 2.59-11.25 3.49-3.85 0.91-11.39 2.33-16.75 3.16-5.42 0.84-16.3 1.51-24.5 1.51-9.05 0-17.45-0.56-21.75-1.46-3.85-0.8-8.8-2.09-11-2.87-2.2-0.77-7.15-2.93-11-4.79-4.78-2.31-9.24-5.6-14.08-10.38-5.33-5.27-8.02-8.97-10.9-15-2.19-4.58-4.62-11.85-5.66-17-1.16-5.69-1.84-13.42-1.86-21-0.01-6.7 0.66-15.75 1.54-20.5 0.85-4.68 2.44-11.09 3.51-14.25 1.07-3.16 3.14-8.11 4.58-11 1.45-2.89 3.9-7.05 5.44-9.25 1.54-2.2 4.51-5.83 6.61-8.07 2.1-2.25 5.62-5.45 7.82-7.12 2.2-1.67 6.7-4.39 10-6.04 3.3-1.66 7.58-3.61 9.5-4.35 1.93-0.73 5.98-1.87 9-2.52 3.03-0.66 10.68-1.24 17-1.3zm293.31 0.11c8.85 0.27 14.1 0.88 15.96 1.85 1.53 0.79 3.01 2.11 3.3 2.94 0.28 0.82 1.15 7.57 1.94 15 0.78 7.43 2.08 17.77 2.89 23 0.8 5.22 1.96 12.87 2.57 17 0.61 4.12 1.82 12 2.69 17.5 0.87 5.5 2.2 11.46 2.96 13.25 0.76 1.79 1.83 3.25 2.38 3.25 0.55 0 1.66-1.46 2.47-3.25 0.81-1.79 2.6-8.43 3.97-14.75 1.37-6.32 5.15-20.28 8.39-31 3.25-10.72 6.97-21.93 8.28-24.9 1.32-2.98 3.85-6.69 5.64-8.25 2.86-2.51 4.03-2.85 9.75-2.85 5.67 0 6.89 0.35 9.59 2.75 1.71 1.51 4.12 5 5.38 7.75 1.25 2.75 4.8 13.55 7.88 24 3.08 10.45 6.78 24.18 8.21 30.5 1.43 6.32 3.35 13.43 4.27 15.78 0.92 2.36 2.23 4.27 2.92 4.25 0.69-0.01 1.65-0.82 2.14-1.78 0.49-0.96 1.39-4.23 2.01-7.25 0.62-3.03 2.69-15.63 4.6-28 1.91-12.38 3.97-28.13 4.57-35 0.6-6.88 1.28-13.96 1.51-15.75 0.34-2.64 1.13-3.55 4.17-4.85 2.96-1.27 6.4-1.53 16.3-1.25 10.55 0.29 13 0.67 15.41 2.35 2.82 1.97 2.85 2.09 2.16 9-0.39 3.85-1.59 13.52-2.68 21.5-1.09 7.97-3.33 22.37-4.99 32-1.65 9.62-4.39 24.25-6.07 32.5-1.68 8.25-4.39 20.62-6.02 27.5-1.63 6.87-4.07 16.21-5.41 20.75-2.16 7.26-2.84 8.44-5.7 9.86-2.68 1.34-5.96 1.56-18.75 1.25-11.24-0.27-16.32-0.78-18.5-1.88-1.65-0.83-3.52-2.63-4.16-4-0.65-1.36-2.09-7.88-3.22-14.48-1.13-6.6-3.22-18.53-4.66-26.5-1.44-7.98-3.43-17.88-4.44-22-1.01-4.13-2.55-9.19-3.42-11.25-0.88-2.06-2.27-3.75-3.1-3.75-0.82 0-2.37 1.91-3.42 4.25-1.06 2.34-2.85 8.3-3.98 13.25-1.13 4.95-3.21 15.75-4.62 24-1.41 8.25-3.46 19.5-4.56 25-1.1 5.5-2.82 11.12-3.82 12.5-1.02 1.4-3.76 3.07-6.21 3.79-2.94 0.86-9.14 1.19-18.73 1-13.87-0.28-14.41-0.37-16.52-2.79-1.21-1.38-3.38-6.77-4.84-12-1.46-5.23-4.06-15.57-5.77-23-1.71-7.43-4.69-21.38-6.61-31-1.93-9.63-4.4-23.13-5.51-30-1.1-6.88-3.11-20.82-4.46-31-1.35-10.18-2.43-19.31-2.4-20.3 0.02-0.98 1.17-2.94 2.55-4.34 2.49-2.53 2.65-2.55 15.71-2.15zm193.69-0.13c5.78-0.04 12.19 0.38 14.25 0.93 2.06 0.54 5.21 2.27 7 3.84 1.79 1.57 6.6 8.89 10.69 16.25 4.09 7.37 10.41 18.35 14.06 24.4 3.64 6.05 9.27 14.82 12.49 19.5 3.23 4.68 7.93 10.92 10.44 13.89 2.51 2.96 5.36 5.77 6.32 6.25 0.96 0.47 2.54 0.65 3.5 0.4 1.07-0.28 2.24-2.22 3-5 0.69-2.5 1.25-7.58 1.24-11.29 0-3.71-0.65-12.15-1.44-18.75-0.79-6.6-2.15-16.28-3.04-21.5-0.89-5.22-2-12.2-2.48-15.5-0.6-4.16-0.51-6.72 0.3-8.37 0.65-1.3 2.41-2.99 3.92-3.75 1.77-0.89 6.24-1.39 12.5-1.4 5.36-0.01 11.1 0.43 12.75 0.98 1.68 0.56 3.59 2.22 4.34 3.77 0.75 1.54 1.73 8.97 2.22 16.77 0.49 7.7 1.39 25.47 2 39.5 0.62 14.03 0.92 36.52 0.69 50-0.35 19.21-0.8 25.69-2.13 30-0.93 3.02-3.14 7.27-4.9 9.42-1.77 2.16-4.68 4.53-6.47 5.25-1.79 0.73-5.84 1.33-9 1.32-4.52-0.01-6.82-0.63-10.75-2.91-2.75-1.6-7.32-5.31-10.15-8.24-2.84-2.94-7.81-9.16-11.06-13.84-3.25-4.68-10.16-15.84-15.35-24.82-5.19-8.98-11.69-19.29-14.44-22.93-2.75-3.63-6.12-7.45-7.5-8.47q-2.5-1.85-4.31-1.07c-0.99 0.43-2.54 2.82-3.43 5.29-1.38 3.81-1.53 7.19-0.97 22 0.36 9.62 1.34 23.35 2.16 30.5 0.83 7.15 1.52 14.24 1.53 15.75 0.01 1.74-1.08 3.85-5.98 8.75l-14.3-0.25c-11.63-0.2-14.8-0.58-19.7-3.75l0.01-28.25c0.01-15.54 0.67-43.55 1.47-62.25 0.8-18.7 1.73-38.5 2.07-44 0.35-5.5 1.04-11.46 1.54-13.25 0.63-2.24 1.77-3.54 3.66-4.17 1.51-0.51 7.48-0.96 13.25-1zm143.25-0.01c6.78-0.05 10.66 0.39 12.75 1.43 1.65 0.82 3.2 2.51 3.45 3.75 0.24 1.24 0.93 16.2 1.53 33.25 0.6 17.05 1.41 49.26 2.52 112.16l-6.35 6.34h-13.07c-10.63 0-13.65-0.33-16.13-1.75-1.67-0.96-3.32-2.88-3.65-4.25-0.34-1.38-0.32-12.63 0.02-25 0.35-12.38 1.1-43.88 1.66-70 0.7-32.77 1.4-48.46 2.24-50.61 0.67-1.71 2.13-3.59 3.25-4.18 1.12-0.59 6.42-1.11 11.78-1.14zm92-0.03c32.26-0.03 52.69 0.34 54.25 0.96 1.38 0.55 3.01 2.01 3.63 3.25 0.62 1.24 1.62 10.8 2.22 21.25 1 17.41 0.95 19.23-0.63 21.75-1.13 1.81-2.58 2.75-4.22 2.75-1.81 0-3.67-1.45-6.75-5.25-2.34-2.89-5.15-6.05-6.25-7.02-1.1-0.98-4.14-2.89-6.75-4.25-2.61-1.37-7.79-3.23-11.5-4.15-4.47-1.11-11.15-1.69-19.75-1.73-9.94-0.05-14.41 0.37-19 1.79-3.3 1.01-7.06 2.58-8.36 3.48-1.3 0.9-3.29 3.2-4.41 5.13-1.64 2.8-1.94 4.6-1.51 9 0.45 4.62 1.08 5.99 3.91 8.58 2.14 1.96 5.29 3.52 8.62 4.25 2.89 0.65 10.31 1.17 16.5 1.16 6.19-0.01 16.65-0.46 23.25-1.02 10.23-0.85 12.33-0.78 14.25 0.51 2.14 1.45 2.25 2.15 2.27 14.77 0.01 9.08-0.37 13.64-1.2 14.5-0.67 0.69-2.14 1.25-3.27 1.25-1.13 0.01-3.63-1.07-5.55-2.38-1.92-1.31-6.2-3.21-9.5-4.22-4.6-1.4-9.39-1.83-20.5-1.86-13.64-0.04-14.8 0.11-19.5 2.53-3.38 1.73-5.72 3.84-7.23 6.5-1.74 3.06-2.24 5.54-2.25 11.18-0.02 5.49 0.53 8.38 2.23 11.93 1.42 2.94 3.64 5.53 6 7 2.06 1.27 5.44 2.97 7.5 3.77 2.06 0.8 6.45 1.93 9.75 2.51 3.3 0.58 9.04 1.05 12.75 1.05 3.71-0.01 10.24-0.51 14.5-1.11 4.26-0.61 10-2.1 12.75-3.32 2.75-1.21 6.98-3.98 9.41-6.14 2.42-2.17 6.36-6.98 8.75-10.69 4-6.22 4.61-6.75 7.84-6.75 2.5 0 3.79 0.57 4.5 2 0.55 1.1 1.24 4.36 1.53 7.25 0.3 2.89 0.94 13.57 1.42 23.75 0.49 10.18 0.59 19.08 0.22 19.79-0.37 0.71-2.02 1.73-3.67 2.26-1.81 0.59-24.52 0.98-57.25 0.97-37.54-0.01-56.64-0.39-62-1.23-4.26-0.67-8.31-1.8-9-2.5-0.89-0.92-1.26-5.91-1.27-17.54-0.01-8.94 0.45-29.53 1.02-45.75 0.57-16.22 1.5-40.53 2.07-54 0.56-13.47 1.34-26.49 1.73-28.92 0.58-3.64 1.22-4.64 3.7-5.71 2.32-1 14.72-1.3 54.75-1.33zm-83.75-88.35c1.65 0.3 4.8 0.87 7 1.25 3.98 0.7 3.99 0.71 1.5 1.98-2.09 1.07-3.03 1.02-5.75-0.32-1.79-0.88-4.94-1.64-7-1.7-3.39-0.09-3.51-0.18-1.25-0.94 1.38-0.46 3.85-0.58 5.5-0.27zm16.5 1.83c1.92 0.44 4.74 0.83 6.24 0.89 1.51 0.05 2.75 0.2 2.75 0.34 0.01 0.14-0.66 0.92-1.49 1.75-1.33 1.33-1.92 1.32-5.25-0.09-2.06-0.88-4.2-2.06-4.75-2.63-0.69-0.72 0.09-0.8 2.5-0.26zm-30 1.68c2.03-0.03 1.71 0.33-1.75 1.88-2.62 1.18-5.31 1.7-7 1.34-1.51-0.32-2.36-0.89-1.89-1.25 0.47-0.37 2.49-0.96 4.5-1.31 2-0.34 4.77-0.64 6.14-0.66zm-3.79 30.38c0.55 0.3 0.95 1.19 0.89 1.98-0.06 0.87-1.19 1.45-2.85 1.47-2.7 0.03-2.72 0-0.89-1.97 1.02-1.11 2.3-1.77 2.85-1.48zm4.84 17.54c0.62 0.21 1.73 2.18 2.48 4.38 0.75 2.2 1.28 4.12 1.17 4.26-0.11 0.14-0.95-0.54-1.87-1.5-0.92-0.97-1.95-3.06-2.28-4.64q-0.61-2.87 0.5-2.5zm-512.3 36.92c0.69-0.02 1.26 0.3 1.28 0.71 0.01 0.41-1.17 1.87-2.63 3.25-1.45 1.37-4.5 4.97-6.76 8-2.27 3.02-5.04 6.85-6.16 8.5-1.12 1.65-3.23 5.02-4.69 7.5-1.46 2.47-3.37 7.2-4.24 10.5-0.87 3.3-1.79 11.18-2.03 17.5-0.24 6.32-0.68 11.61-0.98 11.75-0.3 0.14-1.07-0.76-1.72-2-0.68-1.28-1.18-6.34-1.17-11.75 0-6.14 0.64-11.62 1.78-15.5 0.98-3.3 3.15-8.47 4.82-11.5 1.67-3.03 4.82-7.75 7-10.5 2.18-2.75 6.27-7.57 9.1-10.71 2.83-3.14 5.71-5.73 6.4-5.75zm-2.5 11.93c1.24-0.01 2.59 0.21 3 0.5 0.41 0.29-0.36 2.22-1.72 4.28-1.35 2.06-3.15 4.76-4 6-0.84 1.24-1.98 2.25-2.53 2.25-0.55 0-1-2.03-1-4.5 0-3.17 0.59-5.09 2-6.5 1.1-1.1 3.01-2.01 4.25-2.03zm11.5 35.04c0.69 0 2.4 0.78 3.8 1.74 1.4 0.96 3.2 3.44 4 5.5 0.8 2.06 1.45 5.1 1.45 6.75 0 1.73-1.06 4.27-2.5 6-1.4 1.68-4.16 3.43-6.25 3.98-2.06 0.54-5.5 0.65-7.65 0.25-2.4-0.45-4.62-1.69-5.78-3.23-1.04-1.38-1.87-3.96-1.85-5.75 0.02-2.07 0.92-4.16 2.48-5.75 1.35-1.38 2.82-2.5 3.25-2.5 0.44 0.01 1.38-0.98 2.1-2.2 0.71-1.21 2.29-2.78 3.5-3.49 1.21-0.7 2.76-1.29 3.45-1.3zm121.23 20.99c0.56 0 1.53 1.01 2.14 2.25 0.82 1.64 0.83 3.19 0.03 5.75-0.6 1.93-2 4.06-3.12 4.75-1.12 0.69-2.48 1.03-3.03 0.75-0.55-0.28-1-1.18-1-2 0-0.82 0.64-2.96 1.43-4.75 0.78-1.79 1.67-4.04 1.97-5 0.3-0.96 1.01-1.75 1.58-1.75zm-52.31 5c1.28 0 3.45 0.45 4.83 1 1.37 0.55 2.74 1.79 3.03 2.75 0.29 0.96 0.06 2.99-0.5 4.5-0.57 1.51-2.49 4.6-4.28 6.87-1.79 2.26-5.73 5.87-8.75 8.02-3.42 2.43-6.63 3.91-8.5 3.92-2.35 0.01-4.07-1.14-7.91-5.27-4.89-5.27-4.9-5.31-4.15-10.29 0.41-2.75 0.92-5.45 1.13-6 0.21-0.55 1.63-1.59 3.16-2.32 1.52-0.72 6.36-1.5 10.74-1.73 4.38-0.23 8.17-0.65 8.42-0.93 0.24-0.29 1.49-0.52 2.78-0.52zm41.33 17.04c2.1-0.06 4.6 0.71 6.25 1.93 2.09 1.54 2.75 2.87 2.75 5.53 0 1.93-1.1 5.86-2.45 8.75-1.35 2.89-4.17 6.95-6.25 9.03-2.73 2.71-4.93 3.92-7.8 4.3-3.19 0.42-4.58 0.06-6.86-1.77-2.68-2.17-2.89-2.87-3.41-11.81-0.44-7.53-0.26-9.71 0.86-10.49 0.77-0.54 4.11-1.97 7.41-3.17 3.3-1.2 7.57-2.24 9.5-2.3zm-106.5 12.96c0.82 0 1.72 0.45 2 1 0.28 0.55 2.75 1 5.5 1 4.08 0 5.01 0.32 5.04 1.75 0.03 0.96-0.53 2.29-1.25 2.95-0.71 0.66-2.75 1.45-4.54 1.75-2.66 0.45-3.71 0.05-5.78-2.2-1.4-1.51-2.52-3.54-2.5-4.5 0.01-0.96 0.71-1.75 1.53-1.75zm39.25 8.6c0.69 0.22 1.93 0.4 2.75 0.4 0.82 0 2.85 1.12 4.5 2.5 2.48 2.06 3 3.24 2.98 6.75 0 2.34-0.34 4.72-0.75 5.3-0.4 0.58-2.3 2.21-4.23 3.63-1.93 1.41-5.75 3.32-8.5 4.24-2.75 0.92-6.33 1.54-7.96 1.38-2.92-0.3-2.95-0.38-3.13-6.8-0.15-5.43 0.26-7.22 2.46-10.89 1.45-2.41 3.08-4.64 3.63-4.94 0.55-0.31 2.35-0.87 4-1.26 1.65-0.39 3.56-0.52 4.25-0.31zm37.33 10.4c1.05 0 2.22 0.79 2.58 1.75 0.48 1.26-0.37 2.6-3 4.75-2.01 1.65-3.66 3.79-3.66 4.75 0 0.96-0.5 2.09-1.11 2.5-0.61 0.41-1.51 0.07-1.99-0.75-0.48-0.82-0.91-2.7-0.96-4.17-0.06-1.77 0.98-3.72 3.06-5.75 1.73-1.7 4.02-3.08 5.08-3.08zm26.17 0.02c0.41-0.01 0.76 0.32 0.77 0.73 0.01 0.41-1.45 2.14-3.25 3.85-1.8 1.7-5.52 4.76-8.27 6.79-2.75 2.03-8.15 4.98-12 6.56-3.85 1.58-12.4 4.06-19 5.51-11.89 2.61-12.07 2.62-19.5 0.97-4.13-0.92-7.95-2.11-8.5-2.66-0.66-0.65 1.89-0.75 7.5-0.3 4.92 0.4 11.02 0.24 14.5-0.37 3.3-0.59 9.37-2.13 13.5-3.43 4.12-1.31 10.2-3.75 13.5-5.44 3.3-1.68 9.15-5.11 13-7.62 3.85-2.51 7.34-4.58 7.75-4.59z"/>
</svg>